<?xml version="1.0" encoding="UTF-8" standalone="no"?>
<svg version="1.1" xmlns="http://www.w3.org/2000/svg" xmlns:xlink="http://www.w3.org/1999/xlink" width="115.556" height="115.556">
	<g id="dp_dp001" transform="matrix(1,0,0,1,-319.388,-188.353)">
		<path id="dp_path002" fill="#1c8af1" fill-rule="evenodd" stroke="none" stroke-width="0" d="M 347.675,214.889 C 344.503,224.908 348.596,231.896 356.909,238.152 C 351.644,231.953 346.281,223.363 349.903,214.915 C 352.263,209.408 356.789,207.433 361.747,204.571 L 363.964,203.291 C 359.397,203.291 349.792,209.161 348.196,213.389 C 348.004,213.896 347.831,214.396 347.675,214.889 Z M 320.055,206.028 C 320.055,196.635 327.669,189.02 337.063,189.02 L 416.432,189.02 C 421.465,189.02 425.989,191.207 429.103,194.684 C 427.295,196.628 425.465,198.465 424.44,199.137 C 413.987,205.979 395.093,207.668 380.16,208.297 C 376.585,208.448 368.933,207.553 366.387,208.5 C 365.237,208.927 363.067,209.92 362.103,210.124 C 363.112,213.147 357.404,213.975 356.436,214.583 C 356.308,214.661 356.221,214.797 356.165,214.98 C 355.709,216.46 357.348,220.965 356.968,222.608 C 356.677,223.86 352.851,227.535 352.961,227.625 C 353.608,228.456 355.709,226.823 356.823,226.325 C 360.312,224.767 364.203,223.692 367.861,223.189 C 368.384,223.117 368.947,223.061 369.612,223.024 C 369.676,223.02 371.319,222.763 371.479,223.161 C 376.657,236.02 372.353,273.093 358.844,291.285 C 368.427,286.619 378.011,278.452 387.593,277.285 C 390.869,245.733 389.701,231.06 389.489,220.66 C 403.524,219.851 420.041,215.833 428.387,206.393 C 429.415,205.228 430.656,201.977 431.716,198.56 C 432.82,200.813 433.44,203.348 433.44,206.028 L 433.44,285.397 C 433.44,294.791 425.825,302.405 416.432,302.405 L 337.063,302.405 C 327.669,302.405 320.055,294.791 320.055,285.397 Z M 339.548,212.205 C 336.193,223.323 340.952,231.141 350.453,238.152 C 344.335,231.089 338.103,221.301 342.312,211.675 C 345.055,205.401 350.315,203.151 356.075,199.889 L 358.652,198.431 C 353.345,198.431 342.183,205.12 340.328,209.937 C 340.253,210.129 340.181,210.321 340.112,210.512 C 339.903,211.084 339.715,211.648 339.548,212.205 Z M 330.903,209.56 C 326.595,222.681 332.155,231.833 343.445,240.027 C 336.293,231.908 329.011,220.656 333.928,209.592 C 337.133,202.38 343.281,199.793 350.015,196.044 L 353.027,194.368 C 346.92,194.368 334.184,201.819 331.72,207.333 C 331.68,207.42 331.644,207.508 331.611,207.595 C 331.349,208.259 331.115,208.915 330.903,209.56 Z "/>
		<path id="dp_path003" fill="#007df1" fill-rule="evenodd" stroke="none" stroke-width="0" d="M 320.055,206.028 C 320.055,196.635 327.669,189.02 337.063,189.02 L 416.432,189.02 C 421.465,189.02 425.989,191.207 429.103,194.684 C 427.295,196.628 425.465,198.465 424.44,199.137 C 413.987,205.979 395.093,207.668 380.16,208.297 C 376.585,208.448 368.933,207.553 366.387,208.5 C 365.237,208.927 363.067,209.92 362.103,210.124 C 363.112,213.147 357.404,213.975 356.436,214.583 C 356.308,214.661 356.221,214.797 356.165,214.98 C 355.709,216.46 357.348,220.965 356.968,222.608 C 356.677,223.86 352.851,227.535 352.961,227.625 C 353.608,228.456 355.709,226.823 356.823,226.325 C 360.312,224.767 364.203,223.692 367.861,223.189 C 368.384,223.117 368.947,223.061 369.612,223.024 C 369.676,223.02 371.319,222.763 371.479,223.161 C 374.543,230.769 374.287,246.857 370.768,262.495 C 370.428,262.497 370.089,262.499 369.749,262.499 C 351.031,262.499 333.791,258.779 320.055,252.528 Z M 347.675,214.889 C 344.503,224.908 348.596,231.896 356.909,238.152 C 351.644,231.953 346.281,223.363 349.903,214.915 C 352.263,209.408 356.789,207.433 361.747,204.571 L 363.964,203.291 C 359.397,203.291 349.792,209.161 348.196,213.389 C 348.004,213.896 347.831,214.396 347.675,214.889 Z M 389.489,220.66 C 403.524,219.851 420.041,215.833 428.387,206.393 C 429.415,205.228 430.656,201.977 431.716,198.56 C 432.82,200.813 433.44,203.348 433.44,206.028 L 433.44,244.399 C 422.383,252.589 406.847,258.6 389.008,261.148 C 390.463,240.349 389.661,229.097 389.489,220.66 Z M 339.548,212.205 C 336.193,223.323 340.952,231.141 350.453,238.152 C 344.335,231.089 338.103,221.301 342.312,211.675 C 345.055,205.401 350.315,203.151 356.075,199.889 L 358.652,198.431 C 353.345,198.431 342.183,205.12 340.328,209.937 C 340.253,210.129 340.181,210.321 340.112,210.512 C 339.903,211.084 339.715,211.648 339.548,212.205 Z M 330.903,209.56 C 326.595,222.681 332.155,231.833 343.445,240.027 C 336.293,231.908 329.011,220.656 333.928,209.592 C 337.133,202.38 343.281,199.793 350.015,196.044 L 353.027,194.368 C 346.92,194.368 334.184,201.819 331.72,207.333 C 331.68,207.42 331.644,207.508 331.611,207.595 C 331.349,208.259 331.115,208.915 330.903,209.56 Z "/>
	</g>
</svg>