<?xml version="1.0" encoding="UTF-8" standalone="no"?>
<svg version="1.1" xmlns="http://www.w3.org/2000/svg" xmlns:xlink="http://www.w3.org/1999/xlink" width="115.556" height="115.556">
	<g id="dp_dp001" transform="matrix(1,0,0,1,-207.125,-500.761)">
		<path id="dp_path002" fill="black" fill-rule="evenodd" stroke="none" stroke-width="0" d="M 235.412,527.297 C 232.24,537.316 236.333,544.304 244.647,550.56 C 239.381,544.361 234.019,535.771 237.64,527.323 C 240,521.816 244.527,519.841 249.484,516.979 L 251.701,515.699 C 247.135,515.699 237.529,521.569 235.933,525.797 C 235.741,526.304 235.568,526.804 235.412,527.297 Z M 207.792,518.436 C 207.792,509.043 215.407,501.428 224.8,501.428 L 304.169,501.428 C 309.203,501.428 313.727,503.615 316.84,507.092 C 315.032,509.036 313.203,510.873 312.177,511.545 C 301.724,518.387 282.831,520.076 267.897,520.705 C 264.323,520.856 256.671,519.961 254.124,520.908 C 252.975,521.335 250.804,522.328 249.84,522.532 C 250.849,525.555 245.141,526.383 244.173,526.991 C 244.045,527.069 243.959,527.205 243.903,527.388 C 243.447,528.868 245.085,533.373 244.705,535.016 C 244.415,536.268 240.588,539.943 240.699,540.033 C 241.345,540.864 243.447,539.231 244.56,538.733 C 248.049,537.175 251.94,536.1 255.599,535.597 C 256.121,535.525 256.684,535.469 257.349,535.432 C 257.413,535.428 259.056,535.171 259.216,535.569 C 264.395,548.428 260.091,585.501 246.581,603.693 C 256.164,599.027 265.748,590.86 275.331,589.693 C 278.607,558.141 277.439,543.468 277.227,533.068 C 291.261,532.259 307.779,528.241 316.124,518.801 C 317.152,517.636 318.393,514.385 319.453,510.968 C 320.557,513.221 321.177,515.756 321.177,518.436 L 321.177,597.805 C 321.177,607.199 313.563,614.813 304.169,614.813 L 224.8,614.813 C 215.407,614.813 207.792,607.199 207.792,597.805 Z M 227.285,524.613 C 223.931,535.731 228.689,543.549 238.191,550.56 C 232.072,543.497 225.84,533.709 230.049,524.083 C 232.792,517.809 238.052,515.559 243.812,512.297 L 246.389,510.839 C 241.083,510.839 229.92,517.528 228.065,522.345 C 227.991,522.537 227.919,522.729 227.849,522.92 C 227.64,523.492 227.452,524.056 227.285,524.613 Z M 218.64,521.968 C 214.332,535.089 219.892,544.241 231.183,552.435 C 224.031,544.316 216.748,533.064 221.665,522 C 224.871,514.788 231.019,512.201 237.752,508.452 L 240.764,506.776 C 234.657,506.776 221.921,514.227 219.457,519.741 C 219.417,519.828 219.381,519.916 219.348,520.003 C 219.087,520.667 218.852,521.323 218.64,521.968 Z "/>
		<path id="dp_path003" fill="black" fill-rule="evenodd" stroke="none" stroke-width="0" d="M 207.792,518.436 C 207.792,509.043 215.407,501.428 224.8,501.428 L 304.169,501.428 C 309.203,501.428 313.727,503.615 316.84,507.092 C 315.032,509.036 313.203,510.873 312.177,511.545 C 301.724,518.387 282.831,520.076 267.897,520.705 C 264.323,520.856 256.671,519.961 254.124,520.908 C 252.975,521.335 250.804,522.328 249.84,522.532 C 250.849,525.555 245.141,526.383 244.173,526.991 C 244.045,527.069 243.959,527.205 243.903,527.388 C 243.447,528.868 245.085,533.373 244.705,535.016 C 244.415,536.268 240.588,539.943 240.699,540.033 C 241.345,540.864 243.447,539.231 244.56,538.733 C 248.049,537.175 251.94,536.1 255.599,535.597 C 256.121,535.525 256.684,535.469 257.349,535.432 C 257.413,535.428 259.056,535.171 259.216,535.569 C 262.28,543.177 262.024,559.265 258.505,574.903 C 258.165,574.905 257.827,574.907 257.487,574.907 C 238.768,574.907 221.528,571.187 207.792,564.936 Z M 235.412,527.297 C 232.24,537.316 236.333,544.304 244.647,550.56 C 239.381,544.361 234.019,535.771 237.64,527.323 C 240,521.816 244.527,519.841 249.484,516.979 L 251.701,515.699 C 247.135,515.699 237.529,521.569 235.933,525.797 C 235.741,526.304 235.568,526.804 235.412,527.297 Z M 277.227,533.068 C 291.261,532.259 307.779,528.241 316.124,518.801 C 317.152,517.636 318.393,514.385 319.453,510.968 C 320.557,513.221 321.177,515.756 321.177,518.436 L 321.177,556.807 C 310.12,564.997 294.584,571.008 276.745,573.556 C 278.2,552.757 277.399,541.505 277.227,533.068 Z M 227.285,524.613 C 223.931,535.731 228.689,543.549 238.191,550.56 C 232.072,543.497 225.84,533.709 230.049,524.083 C 232.792,517.809 238.052,515.559 243.812,512.297 L 246.389,510.839 C 241.083,510.839 229.92,517.528 228.065,522.345 C 227.991,522.537 227.919,522.729 227.849,522.92 C 227.64,523.492 227.452,524.056 227.285,524.613 Z M 218.64,521.968 C 214.332,535.089 219.892,544.241 231.183,552.435 C 224.031,544.316 216.748,533.064 221.665,522 C 224.871,514.788 231.019,512.201 237.752,508.452 L 240.764,506.776 C 234.657,506.776 221.921,514.227 219.457,519.741 C 219.417,519.828 219.381,519.916 219.348,520.003 C 219.087,520.667 218.852,521.323 218.64,521.968 Z "/>
	</g>
</svg>